ffmpeg started on 2025-07-20 at 12:29:52
Report written to "D:\Convert\FFMetrics\reports\psnr_report-6.txt"
Log level: 32
Command line:
ffmpeg -hide_banner -nostdin -i "G:\\\xc0\xed\xe8\xec\xe5\\\xce\xed\xe3\xee\xe8\xed\xe3\xe8\\!_10_\xc2\xe5\xf1\xed\xe0_2018\\\xcf\xee\xf2\xe5\xf0\xff\xed\xed\xe0\xff \xef\xe5\xf1\xed\xff\\[SHIZA Project] Lost Song ONA [09] [MVO]_HEVC.mkv" -i "G:\\\xc0\xed\xe8\xec\xe5\\\xce\xed\xe3\xee\xe8\xed\xe3\xe8\\!_10_\xc2\xe5\xf1\xed\xe0_2018\\\xcf\xee\xf2\xe5\xf0\xff\xed\xed\xe0\xff \xef\xe5\xf1\xed\xff\\[SHIZA Project] Lost Song ONA [09] [MVO].mkv" -lavfi "[0:v]settb=AVTB,setpts=PTS-STARTPTS,format=pix_fmts=yuv420p10,fps=24000/1001,scale=1280:720:flags=bicubic[main];[1:v]settb=AVTB,setpts=PTS-STARTPTS,format=pix_fmts=yuv420p,fps=24000/1001,scale=1280:720:flags=bicubic[ref];[main][ref]psnr=eof_action=endall:stats_file='D\\:/Convert/FFMetrics/logs/psnr_logfile-6.txt'" -f null -
Input #0, matroska,webm, from 'G:\Аниме\Онгоинги\!_10_Весна_2018\Потерянная песня\[SHIZA Project] Lost Song ONA [09] [MVO]_HEVC.mkv':
  Metadata:
    ENCODER         : Lavf61.7.100
  Duration: 00:23:57.14, start: -0.021000, bitrate: 502 kb/s
  Stream #0:0(jpn): Video: hevc (Main 10), yuv420p10le(tv, bt709, progressive), 1280x720 [SAR 1:1 DAR 16:9], 23.98 fps, 23.98 tbr, 1k tbn (default)
      Metadata:
        title           : www.SHIZA-Project.com
        ENCODER         : Lavc61.19.100 libx265
        BPS             : 306704
        DURATION        : 00:23:57.102708333
        NUMBER_OF_FRAMES: 34456
        NUMBER_OF_BYTES : 55095693
        _STATISTICS_WRITING_APP: mkvpropedit v66.0.0 ('Josie') 64-bit
        _STATISTICS_WRITING_DATE_UTC: 2025-07-19 13:27:54
        _STATISTICS_TAGS: BPS DURATION NUMBER_OF_FRAMES NUMBER_OF_BYTES
  Stream #0:1(rus): Audio: aac (LC), 48000 Hz, stereo, fltp (default)
      Metadata:
        title           : SHIZA Project MVO
        ENCODER         : Lavc61.19.100 aac
        BPS             : 191992
        DURATION        : 00:23:57.120000000
        NUMBER_OF_FRAMES: 67366
        NUMBER_OF_BYTES : 34489547
        _STATISTICS_WRITING_APP: mkvpropedit v66.0.0 ('Josie') 64-bit
        _STATISTICS_WRITING_DATE_UTC: 2025-07-19 13:27:54
        _STATISTICS_TAGS: BPS DURATION NUMBER_OF_FRAMES NUMBER_OF_BYTES
  Stream #0:2(rus): Subtitle: ass (ssa) (default)
      Metadata:
        BPS             : 19
        DURATION        : 00:10:54.880000000
        NUMBER_OF_FRAMES: 19
        NUMBER_OF_BYTES : 1570
        _STATISTICS_WRITING_APP: mkvpropedit v66.0.0 ('Josie') 64-bit
        _STATISTICS_WRITING_DATE_UTC: 2025-07-19 13:27:54
        _STATISTICS_TAGS: BPS DURATION NUMBER_OF_FRAMES NUMBER_OF_BYTES
Input #1, matroska,webm, from 'G:\Аниме\Онгоинги\!_10_Весна_2018\Потерянная песня\[SHIZA Project] Lost Song ONA [09] [MVO].mkv':
  Metadata:
    encoder         : libebml v1.3.1 + libmatroska v1.4.2
    creation_time   : 2018-07-23T21:50:47.000000Z
  Duration: 00:23:57.12, start: 0.000000, bitrate: 1729 kb/s
  Stream #1:0(jpn): Video: h264 (Main), yuv420p(progressive), 1280x720 [SAR 1:1 DAR 16:9], 23.98 fps, 23.98 tbr, 1k tbn (default)
      Metadata:
        title           : www.SHIZA-Project.com
        BPS             : 1535031
        BPS-eng         : 1535031
        DURATION        : 00:23:57.103000000
        DURATION-eng    : 00:23:57.103000000
        NUMBER_OF_FRAMES: 34456
        NUMBER_OF_FRAMES-eng: 34456
        NUMBER_OF_BYTES : 275749869
        NUMBER_OF_BYTES-eng: 275749869
        _STATISTICS_WRITING_APP: mkvmerge v7.8.0 ('River Man') 32bit built on Mar 27 2015 16:18:02
        _STATISTICS_WRITING_APP-eng: mkvmerge v7.8.0 ('River Man') 32bit built on Mar 27 2015 16:18:02
        _STATISTICS_WRITING_DATE_UTC: 2018-07-23 21:50:47
        _STATISTICS_WRITING_DATE_UTC-eng: 2018-07-23 21:50:47
        _STATISTICS_TAGS: BPS DURATION NUMBER_OF_FRAMES NUMBER_OF_BYTES
        _STATISTICS_TAGS-eng: BPS DURATION NUMBER_OF_FRAMES NUMBER_OF_BYTES
  Stream #1:1(rus): Audio: aac (LC), 48000 Hz, stereo, fltp (default)
      Metadata:
        title           : SHIZA Project MVO
        BPS             : 191999
        BPS-eng         : 191999
        DURATION        : 00:23:57.120000000
        DURATION-eng    : 00:23:57.120000000
        NUMBER_OF_FRAMES: 67365
        NUMBER_OF_FRAMES-eng: 67365
        NUMBER_OF_BYTES : 34490780
        NUMBER_OF_BYTES-eng: 34490780
        _STATISTICS_WRITING_APP: mkvmerge v7.8.0 ('River Man') 32bit built on Mar 27 2015 16:18:02
        _STATISTICS_WRITING_APP-eng: mkvmerge v7.8.0 ('River Man') 32bit built on Mar 27 2015 16:18:02
        _STATISTICS_WRITING_DATE_UTC: 2018-07-23 21:50:47
        _STATISTICS_WRITING_DATE_UTC-eng: 2018-07-23 21:50:47
        _STATISTICS_TAGS: BPS DURATION NUMBER_OF_FRAMES NUMBER_OF_BYTES
        _STATISTICS_TAGS-eng: BPS DURATION NUMBER_OF_FRAMES NUMBER_OF_BYTES
  Stream #1:2(rus): Subtitle: ass (ssa) (default)
      Metadata:
        BPS             : 19
        BPS-eng         : 19
        DURATION        : 00:10:54.880000000
        DURATION-eng    : 00:10:54.880000000
        NUMBER_OF_FRAMES: 19
        NUMBER_OF_FRAMES-eng: 19
        NUMBER_OF_BYTES : 1570
        NUMBER_OF_BYTES-eng: 1570
        _STATISTICS_WRITING_APP: mkvmerge v7.8.0 ('River Man') 32bit built on Mar 27 2015 16:18:02
        _STATISTICS_WRITING_APP-eng: mkvmerge v7.8.0 ('River Man') 32bit built on Mar 27 2015 16:18:02
        _STATISTICS_WRITING_DATE_UTC: 2018-07-23 21:50:47
        _STATISTICS_WRITING_DATE_UTC-eng: 2018-07-23 21:50:47
        _STATISTICS_TAGS: BPS DURATION NUMBER_OF_FRAMES NUMBER_OF_BYTES
        _STATISTICS_TAGS-eng: BPS DURATION NUMBER_OF_FRAMES NUMBER_OF_BYTES
Stream mapping:
  Stream #0:0 (hevc) -> settb:default
  Stream #1:0 (h264) -> settb:default
  psnr:default -> Stream #0:0 (wrapped_avframe)
  Stream #0:1 -> #0:1 (aac (native) -> pcm_s16le (native))
[swscaler @ 00000296185e9740] No accelerated colorspace conversion found from yuv420p to bgr48le.
[swscaler @ 00000296187bf200] No accelerated colorspace conversion found from yuv420p to bgr48le.
[swscaler @ 0000029618866500] No accelerated colorspace conversion found from yuv420p to bgr48le.
[swscaler @ 00000296189064c0] No accelerated colorspace conversion found from yuv420p to bgr48le.
[swscaler @ 0000029618974840] No accelerated colorspace conversion found from yuv420p to bgr48le.
[swscaler @ 00000296189cf3c0] No accelerated colorspace conversion found from yuv420p to bgr48le.
[swscaler @ 0000029618a4d740] No accelerated colorspace conversion found from yuv420p to bgr48le.
[swscaler @ 0000029618ac9040] No accelerated colorspace conversion found from yuv420p to bgr48le.
[swscaler @ 0000029618b31040] No accelerated colorspace conversion found from yuv420p to bgr48le.
[swscaler @ 0000029618b9e040] No accelerated colorspace conversion found from yuv420p to bgr48le.
[swscaler @ 0000029618bfa040] No accelerated colorspace conversion found from yuv420p to bgr48le.
[swscaler @ 0000029618c87040] No accelerated colorspace conversion found from yuv420p to bgr48le.
[swscaler @ 0000029618ce2040] No accelerated colorspace conversion found from yuv420p to bgr48le.
[swscaler @ 0000029618d59040] No accelerated colorspace conversion found from yuv420p to bgr48le.
[swscaler @ 0000029618dd4040] No accelerated colorspace conversion found from yuv420p to bgr48le.
[swscaler @ 0000029618e48040] No accelerated colorspace conversion found from yuv420p to bgr48le.
Output #0, null, to 'pipe:':
  Metadata:
    encoder         : Lavf61.7.100
  Stream #0:0: Video: wrapped_avframe, yuv420p10le(tv, bt709, progressive), 1280x720 [SAR 1:1 DAR 16:9], q=2-31, 200 kb/s, 23.98 fps, 23.98 tbn
      Metadata:
        encoder         : Lavc61.19.100 wrapped_avframe
  Stream #0:1(rus): Audio: pcm_s16le, 48000 Hz, stereo, s16, 1536 kb/s (default)
      Metadata:
        title           : SHIZA Project MVO
        _STATISTICS_TAGS: BPS DURATION NUMBER_OF_FRAMES NUMBER_OF_BYTES
        BPS             : 191992
        DURATION        : 00:23:57.120000000
        NUMBER_OF_FRAMES: 67366
        NUMBER_OF_BYTES : 34489547
        _STATISTICS_WRITING_APP: mkvpropedit v66.0.0 ('Josie') 64-bit
        _STATISTICS_WRITING_DATE_UTC: 2025-07-19 13:27:54
        encoder         : Lavc61.19.100 pcm_s16le
frame=   84 fps=0.0 q=-0.0 size=N/A time=00:00:03.50 bitrate=N/A speed=6.82x    frame=  187 fps=184 q=-0.0 size=N/A time=00:00:07.79 bitrate=N/A speed=7.66x    frame=  281 fps=182 q=-0.0 size=N/A time=00:00:11.72 bitrate=N/A speed=7.59x    frame=  383 fps=186 q=-0.0 size=N/A time=00:00:15.97 bitrate=N/A speed=7.77x    frame=  474 fps=184 q=-0.0 size=N/A time=00:00:19.76 bitrate=N/A speed=7.68x    frame=  559 fps=181 q=-0.0 size=N/A time=00:00:23.31 bitrate=N/A speed=7.54x    frame=  654 fps=181 q=-0.0 size=N/A time=00:00:27.27 bitrate=N/A speed=7.57x    frame=  741 fps=180 q=-0.0 size=N/A time=00:00:30.90 bitrate=N/A speed=7.51x    frame=  841 fps=181 q=-0.0 size=N/A time=00:00:35.07 bitrate=N/A speed=7.56x    frame=  933 fps=181 q=-0.0 size=N/A time=00:00:38.91 bitrate=N/A speed=7.56x    frame= 1036 fps=183 q=-0.0 size=N/A time=00:00:43.20 bitrate=N/A speed=7.63x    frame= 1128 fps=182 q=-0.0 size=N/A time=00:00:47.04 bitrate=N/A speed=7.61x    frame= 1226 fps=183 q=-0.0 size=N/A time=00:00:51.13 bitrate=N/A speed=7.64x    frame= 1326 fps=184 q=-0.0 size=N/A time=00:00:55.30 bitrate=N/A speed=7.66x    frame= 1423 fps=184 q=-0.0 size=N/A time=00:00:59.35 bitrate=N/A speed=7.69x    frame= 1510 fps=183 q=-0.0 size=N/A time=00:01:02.97 bitrate=N/A speed=7.64x    frame= 1617 fps=185 q=-0.0 size=N/A time=00:01:07.44 bitrate=N/A speed= 7.7x    frame= 1714 fps=185 q=-0.0 size=N/A time=00:01:11.48 bitrate=N/A speed=7.71x    frame= 1812 fps=185 q=-0.0 size=N/A time=00:01:15.57 bitrate=N/A speed=7.72x    frame= 1908 fps=185 q=-0.0 size=N/A time=00:01:19.57 bitrate=N/A speed=7.73x    frame= 2000 fps=185 q=-0.0 size=N/A time=00:01:23.41 bitrate=N/A speed=7.71x    frame= 2103 fps=185 q=-0.0 size=N/A time=00:01:27.71 bitrate=N/A speed=7.73x    frame= 2196 fps=185 q=-0.0 size=N/A time=00:01:31.59 bitrate=N/A speed=7.73x    frame= 2295 fps=185 q=-0.0 size=N/A time=00:01:35.72 bitrate=N/A speed=7.74x    frame= 2385 fps=185 q=-0.0 size=N/A time=00:01:39.47 bitrate=N/A speed=7.72x    frame= 2487 fps=186 q=-0.0 size=N/A time=00:01:43.72 bitrate=N/A speed=7.74x    frame= 2566 fps=184 q=-0.0 size=N/A time=00:01:47.02 bitrate=N/A speed=7.69x    frame= 2659 fps=184 q=-0.0 size=N/A time=00:01:50.90 bitrate=N/A speed=7.68x    frame= 2750 fps=184 q=-0.0 size=N/A time=00:01:54.69 bitrate=N/A speed=7.67x    frame= 2845 fps=184 q=-0.0 size=N/A time=00:01:58.66 bitrate=N/A speed=7.67x    frame= 2935 fps=184 q=-0.0 size=N/A time=00:02:02.41 bitrate=N/A speed=7.66x    frame= 3037 fps=184 q=-0.0 size=N/A time=00:02:06.66 bitrate=N/A speed=7.68x    frame= 3133 fps=184 q=-0.0 size=N/A time=00:02:10.67 bitrate=N/A speed=7.68x    frame= 3224 fps=184 q=-0.0 size=N/A time=00:02:14.46 bitrate=N/A speed=7.67x    frame= 3320 fps=184 q=-0.0 size=N/A time=00:02:18.47 bitrate=N/A speed=7.68x    frame= 3410 fps=184 q=-0.0 size=N/A time=00:02:22.22 bitrate=N/A speed=7.66x    frame= 3512 fps=184 q=-0.0 size=N/A time=00:02:26.47 bitrate=N/A speed=7.68x    frame= 3592 fps=183 q=-0.0 size=N/A time=00:02:29.81 bitrate=N/A speed=7.65x    frame= 3686 fps=183 q=-0.0 size=N/A time=00:02:33.73 bitrate=N/A speed=7.65x    frame= 3777 fps=183 q=-0.0 size=N/A time=00:02:37.53 bitrate=N/A speed=7.64x    frame= 3863 fps=183 q=-0.0 size=N/A time=00:02:41.11 bitrate=N/A speed=7.63x    frame= 3974 fps=184 q=-0.0 size=N/A time=00:02:45.74 bitrate=N/A speed=7.66x    frame= 4061 fps=183 q=-0.0 size=N/A time=00:02:49.37 bitrate=N/A speed=7.64x    frame= 4165 fps=184 q=-0.0 size=N/A time=00:02:53.71 bitrate=N/A speed=7.66x    frame= 4259 fps=184 q=-0.0 size=N/A time=00:02:57.63 bitrate=N/A speed=7.66x    frame= 4358 fps=184 q=-0.0 size=N/A time=00:03:01.76 bitrate=N/A speed=7.67x    frame= 4460 fps=184 q=-0.0 size=N/A time=00:03:06.01 bitrate=N/A speed=7.68x    frame= 4553 fps=184 q=-0.0 size=N/A time=00:03:09.89 bitrate=N/A speed=7.68x    frame= 4652 fps=184 q=-0.0 size=N/A time=00:03:14.02 bitrate=N/A speed=7.68x    frame= 4751 fps=184 q=-0.0 size=N/A time=00:03:18.15 bitrate=N/A speed=7.69x    frame= 4856 fps=185 q=-0.0 size=N/A time=00:03:22.53 bitrate=N/A speed= 7.7x    frame= 4960 fps=185 q=-0.0 size=N/A time=00:03:26.87 bitrate=N/A speed=7.72x    frame= 5061 fps=185 q=-0.0 size=N/A time=00:03:31.08 bitrate=N/A speed=7.73x    frame= 5154 fps=185 q=-0.0 size=N/A time=00:03:34.96 bitrate=N/A speed=7.72x    frame= 5255 fps=185 q=-0.0 size=N/A time=00:03:39.17 bitrate=N/A speed=7.73x    frame= 5346 fps=185 q=-0.0 size=N/A time=00:03:42.97 bitrate=N/A speed=7.73x    frame= 5440 fps=185 q=-0.0 size=N/A time=00:03:46.89 bitrate=N/A speed=7.72x    frame= 5534 fps=185 q=-0.0 size=N/A time=00:03:50.81 bitrate=N/A speed=7.72x    frame= 5626 fps=185 q=-0.0 size=N/A time=00:03:54.65 bitrate=N/A speed=7.72x    frame= 5724 fps=185 q=-0.0 size=N/A time=00:03:58.73 bitrate=N/A speed=7.72x    frame= 5824 fps=185 q=-0.0 size=N/A time=00:04:02.90 bitrate=N/A speed=7.72x    frame= 5920 fps=185 q=-0.0 size=N/A time=00:04:06.91 bitrate=N/A speed=7.73x    frame= 6026 fps=186 q=-0.0 size=N/A time=00:04:11.33 bitrate=N/A speed=7.74x    frame= 6124 fps=186 q=-0.0 size=N/A time=00:04:15.42 bitrate=N/A speed=7.74x    frame= 6223 fps=186 q=-0.0 size=N/A time=00:04:19.55 bitrate=N/A speed=7.75x    frame= 6314 fps=186 q=-0.0 size=N/A time=00:04:23.34 bitrate=N/A speed=7.74x    frame= 6412 fps=186 q=-0.0 size=N/A time=00:04:27.43 bitrate=N/A speed=7.74x    frame= 6502 fps=185 q=-0.0 size=N/A time=00:04:31.18 bitrate=N/A speed=7.73x    frame= 6608 fps=186 q=-0.0 size=N/A time=00:04:35.60 bitrate=N/A speed=7.75x    frame= 6709 fps=186 q=-0.0 size=N/A time=00:04:39.82 bitrate=N/A speed=7.75x    frame= 6808 fps=186 q=-0.0 size=N/A time=00:04:43.95 bitrate=N/A speed=7.76x    frame= 6912 fps=186 q=-0.0 size=N/A time=00:04:48.28 bitrate=N/A speed=7.77x    frame= 7011 fps=186 q=-0.0 size=N/A time=00:04:52.41 bitrate=N/A speed=7.77x    frame= 7104 fps=186 q=-0.0 size=N/A time=00:04:56.29 bitrate=N/A speed=7.77x    frame= 7207 fps=186 q=-0.0 size=N/A time=00:05:00.59 bitrate=N/A speed=7.78x    frame= 7302 fps=186 q=-0.0 size=N/A time=00:05:04.55 bitrate=N/A speed=7.77x    frame= 7405 fps=187 q=-0.0 size=N/A time=00:05:08.85 bitrate=N/A speed=7.78x    frame= 7502 fps=187 q=-0.0 size=N/A time=00:05:12.89 bitrate=N/A speed=7.78x    frame= 7598 fps=187 q=-0.0 size=N/A time=00:05:16.89 bitrate=N/A speed=7.78x    frame= 7694 fps=187 q=-0.0 size=N/A time=00:05:20.90 bitrate=N/A speed=7.78x    frame= 7790 fps=187 q=-0.0 size=N/A time=00:05:24.90 bitrate=N/A speed=7.78x    frame= 7880 fps=186 q=-0.0 size=N/A time=00:05:28.66 bitrate=N/A speed=7.77x    frame= 7988 fps=187 q=-0.0 size=N/A time=00:05:33.16 bitrate=N/A speed=7.79x    frame= 8088 fps=187 q=-0.0 size=N/A time=00:05:37.33 bitrate=N/A speed=7.79x    frame= 8181 fps=187 q=-0.0 size=N/A time=00:05:41.21 bitrate=N/A speed=7.79x    frame= 8280 fps=187 q=-0.0 size=N/A time=00:05:45.34 bitrate=N/A speed=7.79x    frame= 8376 fps=187 q=-0.0 size=N/A time=00:05:49.34 bitrate=N/A speed=7.79x    frame= 8477 fps=187 q=-0.0 size=N/A time=00:05:53.56 bitrate=N/A speed=7.79x    frame= 8567 fps=187 q=-0.0 size=N/A time=00:05:57.31 bitrate=N/A speed=7.79x    frame= 8650 fps=186 q=-0.0 size=N/A time=00:06:00.77 bitrate=N/A speed=7.78x    frame= 8757 fps=187 q=-0.0 size=N/A time=00:06:05.23 bitrate=N/A speed=7.79x    frame= 8853 fps=187 q=-0.0 size=N/A time=00:06:09.24 bitrate=N/A speed=7.78x    frame= 8955 fps=187 q=-0.0 size=N/A time=00:06:13.49 bitrate=N/A speed=7.79x    frame= 9054 fps=187 q=-0.0 size=N/A time=00:06:17.62 bitrate=N/A speed=7.79x    frame= 9145 fps=187 q=-0.0 size=N/A time=00:06:21.42 bitrate=N/A speed=7.79x    frame= 9246 fps=187 q=-0.0 size=N/A time=00:06:25.63 bitrate=N/A speed=7.79x    frame= 9334 fps=187 q=-0.0 size=N/A time=00:06:29.30 bitrate=N/A speed=7.78x    frame= 9434 fps=187 q=-0.0 size=N/A time=00:06:33.47 bitrate=N/A speed=7.79x    frame= 9530 fps=187 q=-0.0 size=N/A time=00:06:37.48 bitrate=N/A speed=7.79x    frame= 9621 fps=187 q=-0.0 size=N/A time=00:06:41.27 bitrate=N/A speed=7.78x    frame= 9722 fps=187 q=-0.0 size=N/A time=00:06:45.48 bitrate=N/A speed=7.79x    frame= 9819 fps=187 q=-0.0 size=N/A time=00:06:49.53 bitrate=N/A speed=7.79x    frame= 9919 fps=187 q=-0.0 size=N/A time=00:06:53.70 bitrate=N/A speed=7.79x    frame=10014 fps=187 q=-0.0 size=N/A time=00:06:57.66 bitrate=N/A speed=7.79x    frame=10125 fps=187 q=-0.0 size=N/A time=00:07:02.29 bitrate=N/A speed= 7.8x    frame=10228 fps=187 q=-0.0 size=N/A time=00:07:06.59 bitrate=N/A speed= 7.8x    frame=10327 fps=187 q=-0.0 size=N/A time=00:07:10.72 bitrate=N/A speed=7.81x    frame=10425 fps=187 q=-0.0 size=N/A time=00:07:14.80 bitrate=N/A speed=7.81x    frame=10524 fps=187 q=-0.0 size=N/A time=00:07:18.93 bitrate=N/A speed=7.81x    frame=10624 fps=187 q=-0.0 size=N/A time=00:07:23.10 bitrate=N/A speed=7.81x    frame=10723 fps=187 q=-0.0 size=N/A time=00:07:27.23 bitrate=N/A speed=7.81x    frame=10819 fps=187 q=-0.0 size=N/A time=00:07:31.24 bitrate=N/A speed=7.81x    frame=10918 fps=187 q=-0.0 size=N/A time=00:07:35.37 bitrate=N/A speed=7.81x    frame=11012 fps=187 q=-0.0 size=N/A time=00:07:39.29 bitrate=N/A speed=7.81x    frame=11107 fps=187 q=-0.0 size=N/A time=00:07:43.25 bitrate=N/A speed=7.81x    frame=11207 fps=187 q=-0.0 size=N/A time=00:07:47.42 bitrate=N/A speed=7.81x    frame=11306 fps=187 q=-0.0 size=N/A time=00:07:51.55 bitrate=N/A speed=7.82x    frame=11415 fps=188 q=-0.0 size=N/A time=00:07:56.10 bitrate=N/A speed=7.82x    frame=11519 fps=188 q=-0.0 size=N/A time=00:08:00.43 bitrate=N/A speed=7.83x    frame=11623 fps=188 q=-0.0 size=N/A time=00:08:04.77 bitrate=N/A speed=7.83x    frame=11725 fps=188 q=-0.0 size=N/A time=00:08:09.03 bitrate=N/A speed=7.83x    frame=11829 fps=188 q=-0.0 size=N/A time=00:08:13.36 bitrate=N/A speed=7.84x    frame=11928 fps=188 q=-0.0 size=N/A time=00:08:17.49 bitrate=N/A speed=7.84x    frame=12026 fps=188 q=-0.0 size=N/A time=00:08:21.58 bitrate=N/A speed=7.84x    frame=12125 fps=188 q=-0.0 size=N/A time=00:08:25.71 bitrate=N/A speed=7.84x    frame=12220 fps=188 q=-0.0 size=N/A time=00:08:29.67 bitrate=N/A speed=7.84x    frame=12316 fps=188 q=-0.0 size=N/A time=00:08:33.67 bitrate=N/A speed=7.84x    frame=12408 fps=188 q=-0.0 size=N/A time=00:08:37.51 bitrate=N/A speed=7.84x    frame=12513 fps=188 q=-0.0 size=N/A time=00:08:41.89 bitrate=N/A speed=7.84x    frame=12613 fps=188 q=-0.0 size=N/A time=00:08:46.06 bitrate=N/A speed=7.84x    frame=12703 fps=188 q=-0.0 size=N/A time=00:08:49.82 bitrate=N/A speed=7.84x    frame=12804 fps=188 q=-0.0 size=N/A time=00:08:54.03 bitrate=N/A speed=7.84x    frame=12906 fps=188 q=-0.0 size=N/A time=00:08:58.28 bitrate=N/A speed=7.85x    frame=13000 fps=188 q=-0.0 size=N/A time=00:09:02.20 bitrate=N/A speed=7.84x    frame=13100 fps=188 q=-0.0 size=N/A time=00:09:06.37 bitrate=N/A speed=7.85x    frame=13200 fps=188 q=-0.0 size=N/A time=00:09:10.55 bitrate=N/A speed=7.85x    frame=13300 fps=188 q=-0.0 size=N/A time=00:09:14.72 bitrate=N/A speed=7.85x    frame=13387 fps=188 q=-0.0 size=N/A time=00:09:18.34 bitrate=N/A speed=7.84x    frame=13480 fps=188 q=-0.0 size=N/A time=00:09:22.22 bitrate=N/A speed=7.84x    frame=13578 fps=188 q=-0.0 size=N/A time=00:09:26.31 bitrate=N/A speed=7.84x    frame=13675 fps=188 q=-0.0 size=N/A time=00:09:30.36 bitrate=N/A speed=7.84x    frame=13766 fps=188 q=-0.0 size=N/A time=00:09:34.15 bitrate=N/A speed=7.84x    frame=13871 fps=188 q=-0.0 size=N/A time=00:09:38.53 bitrate=N/A speed=7.84x    frame=13965 fps=188 q=-0.0 size=N/A time=00:09:42.45 bitrate=N/A speed=7.84x    frame=14061 fps=188 q=-0.0 size=N/A time=00:09:46.46 bitrate=N/A speed=7.84x    frame=14156 fps=188 q=-0.0 size=N/A time=00:09:50.42 bitrate=N/A speed=7.84x    frame=14241 fps=188 q=-0.0 size=N/A time=00:09:53.96 bitrate=N/A speed=7.83x    frame=14349 fps=188 q=-0.0 size=N/A time=00:09:58.47 bitrate=N/A speed=7.84x    frame=14445 fps=188 q=-0.0 size=N/A time=00:10:02.47 bitrate=N/A speed=7.84x    frame=14541 fps=188 q=-0.0 size=N/A time=00:10:06.48 bitrate=N/A speed=7.84x    frame=14636 fps=188 q=-0.0 size=N/A time=00:10:10.44 bitrate=N/A speed=7.84x    frame=14731 fps=188 q=-0.0 size=N/A time=00:10:14.40 bitrate=N/A speed=7.84x    frame=14827 fps=188 q=-0.0 size=N/A time=00:10:18.40 bitrate=N/A speed=7.84x    frame=14923 fps=188 q=-0.0 size=N/A time=00:10:22.41 bitrate=N/A speed=7.84x    frame=15022 fps=188 q=-0.0 size=N/A time=00:10:26.54 bitrate=N/A speed=7.84x    frame=15113 fps=188 q=-0.0 size=N/A time=00:10:30.33 bitrate=N/A speed=7.83x    frame=15204 fps=188 q=-0.0 size=N/A time=00:10:34.13 bitrate=N/A speed=7.83x    frame=15310 fps=188 q=-0.0 size=N/A time=00:10:38.55 bitrate=N/A speed=7.84x    frame=15405 fps=188 q=-0.0 size=N/A time=00:10:42.51 bitrate=N/A speed=7.83x    frame=15498 fps=188 q=-0.0 size=N/A time=00:10:46.39 bitrate=N/A speed=7.83x    frame=15593 fps=188 q=-0.0 size=N/A time=00:10:50.35 bitrate=N/A speed=7.83x    frame=15690 fps=188 q=-0.0 size=N/A time=00:10:54.40 bitrate=N/A speed=7.83x    frame=15789 fps=188 q=-0.0 size=N/A time=00:10:58.53 bitrate=N/A speed=7.83x    frame=15881 fps=188 q=-0.0 size=N/A time=00:11:02.37 bitrate=N/A speed=7.83x    frame=15983 fps=188 q=-0.0 size=N/A time=00:11:06.62 bitrate=N/A speed=7.83x    frame=16086 fps=188 q=-0.0 size=N/A time=00:11:10.92 bitrate=N/A speed=7.84x    frame=16186 fps=188 q=-0.0 size=N/A time=00:11:15.09 bitrate=N/A speed=7.84x    frame=16284 fps=188 q=-0.0 size=N/A time=00:11:19.17 bitrate=N/A speed=7.84x    frame=16374 fps=188 q=-0.0 size=N/A time=00:11:22.93 bitrate=N/A speed=7.83x    frame=16471 fps=188 q=-0.0 size=N/A time=00:11:26.97 bitrate=N/A speed=7.83x    frame=16566 fps=188 q=-0.0 size=N/A time=00:11:30.94 bitrate=N/A speed=7.83x    frame=16661 fps=188 q=-0.0 size=N/A time=00:11:34.90 bitrate=N/A speed=7.83x    frame=16758 fps=188 q=-0.0 size=N/A time=00:11:38.94 bitrate=N/A speed=7.83x    frame=16856 fps=188 q=-0.0 size=N/A time=00:11:43.03 bitrate=N/A speed=7.83x    frame=16949 fps=188 q=-0.0 size=N/A time=00:11:46.91 bitrate=N/A speed=7.83x    frame=17041 fps=188 q=-0.0 size=N/A time=00:11:50.75 bitrate=N/A speed=7.83x    frame=17140 fps=188 q=-0.0 size=N/A time=00:11:54.88 bitrate=N/A speed=7.83x    frame=17238 fps=188 q=-0.0 size=N/A time=00:11:58.96 bitrate=N/A speed=7.83x    frame=17333 fps=188 q=-0.0 size=N/A time=00:12:02.93 bitrate=N/A speed=7.83x    frame=17433 fps=188 q=-0.0 size=N/A time=00:12:07.10 bitrate=N/A speed=7.83x    frame=17531 fps=188 q=-0.0 size=N/A time=00:12:11.18 bitrate=N/A speed=7.83x    frame=17629 fps=188 q=-0.0 size=N/A time=00:12:15.27 bitrate=N/A speed=7.83x    frame=17728 fps=188 q=-0.0 size=N/A time=00:12:19.40 bitrate=N/A speed=7.83x    frame=17832 fps=188 q=-0.0 size=N/A time=00:12:23.74 bitrate=N/A speed=7.84x    frame=17925 fps=188 q=-0.0 size=N/A time=00:12:27.62 bitrate=N/A speed=7.83x    frame=18022 fps=188 q=-0.0 size=N/A time=00:12:31.66 bitrate=N/A speed=7.83x    frame=18131 fps=188 q=-0.0 size=N/A time=00:12:36.21 bitrate=N/A speed=7.84x    frame=18235 fps=188 q=-0.0 size=N/A time=00:12:40.55 bitrate=N/A speed=7.84x    frame=18335 fps=188 q=-0.0 size=N/A time=00:12:44.72 bitrate=N/A speed=7.84x    frame=18436 fps=188 q=-0.0 size=N/A time=00:12:48.93 bitrate=N/A speed=7.85x    frame=18531 fps=188 q=-0.0 size=N/A time=00:12:52.89 bitrate=N/A speed=7.85x    frame=18626 fps=188 q=-0.0 size=N/A time=00:12:56.85 bitrate=N/A speed=7.84x    frame=18713 fps=188 q=-0.0 size=N/A time=00:13:00.48 bitrate=N/A speed=7.84x    frame=18822 fps=188 q=-0.0 size=N/A time=00:13:05.03 bitrate=N/A speed=7.84x    frame=18918 fps=188 q=-0.0 size=N/A time=00:13:09.03 bitrate=N/A speed=7.84x    frame=19020 fps=188 q=-0.0 size=N/A time=00:13:13.29 bitrate=N/A speed=7.85x    frame=19115 fps=188 q=-0.0 size=N/A time=00:13:17.25 bitrate=N/A speed=7.85x    frame=19217 fps=188 q=-0.0 size=N/A time=00:13:21.50 bitrate=N/A speed=7.85x    frame=19321 fps=188 q=-0.0 size=N/A time=00:13:25.84 bitrate=N/A speed=7.85x    frame=19421 fps=188 q=-0.0 size=N/A time=00:13:30.01 bitrate=N/A speed=7.85x    frame=19524 fps=188 q=-0.0 size=N/A time=00:13:34.31 bitrate=N/A speed=7.85x    frame=19624 fps=188 q=-0.0 size=N/A time=00:13:38.48 bitrate=N/A speed=7.86x    frame=19728 fps=188 q=-0.0 size=N/A time=00:13:42.82 bitrate=N/A speed=7.86x    frame=19818 fps=188 q=-0.0 size=N/A time=00:13:46.57 bitrate=N/A speed=7.86x    frame=19927 fps=188 q=-0.0 size=N/A time=00:13:51.12 bitrate=N/A speed=7.86x    frame=20020 fps=188 q=-0.0 size=N/A time=00:13:55.00 bitrate=N/A speed=7.86x    frame=20116 fps=188 q=-0.0 size=N/A time=00:13:59.00 bitrate=N/A speed=7.86x    frame=20200 fps=188 q=-0.0 size=N/A time=00:14:02.50 bitrate=N/A speed=7.85x    frame=20296 fps=188 q=-0.0 size=N/A time=00:14:06.51 bitrate=N/A speed=7.85x    frame=20394 fps=188 q=-0.0 size=N/A time=00:14:10.59 bitrate=N/A speed=7.85x    frame=20486 fps=188 q=-0.0 size=N/A time=00:14:14.43 bitrate=N/A speed=7.85x    frame=20582 fps=188 q=-0.0 size=N/A time=00:14:18.44 bitrate=N/A speed=7.85x    frame=20675 fps=188 q=-0.0 size=N/A time=00:14:22.31 bitrate=N/A speed=7.85x    frame=20770 fps=188 q=-0.0 size=N/A time=00:14:26.28 bitrate=N/A speed=7.85x    frame=20866 fps=188 q=-0.0 size=N/A time=00:14:30.28 bitrate=N/A speed=7.85x    frame=20958 fps=188 q=-0.0 size=N/A time=00:14:34.12 bitrate=N/A speed=7.85x    frame=21058 fps=188 q=-0.0 size=N/A time=00:14:38.29 bitrate=N/A speed=7.85x    frame=21157 fps=188 q=-0.0 size=N/A time=00:14:42.42 bitrate=N/A speed=7.85x    frame=21252 fps=188 q=-0.0 size=N/A time=00:14:46.38 bitrate=N/A speed=7.85x    frame=21354 fps=188 q=-0.0 size=N/A time=00:14:50.63 bitrate=N/A speed=7.85x    frame=21449 fps=188 q=-0.0 size=N/A time=00:14:54.60 bitrate=N/A speed=7.85x    frame=21543 fps=188 q=-0.0 size=N/A time=00:14:58.52 bitrate=N/A speed=7.85x    frame=21631 fps=188 q=-0.0 size=N/A time=00:15:02.19 bitrate=N/A speed=7.84x    frame=21725 fps=188 q=-0.0 size=N/A time=00:15:06.11 bitrate=N/A speed=7.84x    frame=21817 fps=188 q=-0.0 size=N/A time=00:15:09.95 bitrate=N/A speed=7.84x    frame=21909 fps=188 q=-0.0 size=N/A time=00:15:13.78 bitrate=N/A speed=7.84x    frame=22003 fps=188 q=-0.0 size=N/A time=00:15:17.70 bitrate=N/A speed=7.84x    frame=22093 fps=188 q=-0.0 size=N/A time=00:15:21.46 bitrate=N/A speed=7.83x    frame=22184 fps=188 q=-0.0 size=N/A time=00:15:25.25 bitrate=N/A speed=7.83x    frame=22268 fps=188 q=-0.0 size=N/A time=00:15:28.76 bitrate=N/A speed=7.83x    frame=22374 fps=188 q=-0.0 size=N/A time=00:15:33.18 bitrate=N/A speed=7.83x    frame=22470 fps=188 q=-0.0 size=N/A time=00:15:37.18 bitrate=N/A speed=7.83x    frame=22562 fps=188 q=-0.0 size=N/A time=00:15:41.02 bitrate=N/A speed=7.83x    frame=22659 fps=188 q=-0.0 size=N/A time=00:15:45.06 bitrate=N/A speed=7.83x    frame=22759 fps=188 q=-0.0 size=N/A time=00:15:49.23 bitrate=N/A speed=7.83x    frame=22850 fps=188 q=-0.0 size=N/A time=00:15:53.03 bitrate=N/A speed=7.83x    frame=22945 fps=188 q=-0.0 size=N/A time=00:15:56.99 bitrate=N/A speed=7.83x    frame=23037 fps=188 q=-0.0 size=N/A time=00:16:00.83 bitrate=N/A speed=7.83x    frame=23136 fps=188 q=-0.0 size=N/A time=00:16:04.96 bitrate=N/A speed=7.83x    frame=23231 fps=188 q=-0.0 size=N/A time=00:16:08.92 bitrate=N/A speed=7.83x    frame=23317 fps=188 q=-0.0 size=N/A time=00:16:12.51 bitrate=N/A speed=7.82x    frame=23419 fps=188 q=-0.0 size=N/A time=00:16:16.76 bitrate=N/A speed=7.82x    frame=23520 fps=188 q=-0.0 size=N/A time=00:16:20.98 bitrate=N/A speed=7.83x    frame=23613 fps=188 q=-0.0 size=N/A time=00:16:24.85 bitrate=N/A speed=7.82x    frame=23706 fps=188 q=-0.0 size=N/A time=00:16:28.73 bitrate=N/A speed=7.82x    frame=23794 fps=188 q=-0.0 size=N/A time=00:16:32.40 bitrate=N/A speed=7.82x    frame=23884 fps=187 q=-0.0 size=N/A time=00:16:36.16 bitrate=N/A speed=7.82x    frame=23986 fps=187 q=-0.0 size=N/A time=00:16:40.41 bitrate=N/A speed=7.82x    frame=24081 fps=187 q=-0.0 size=N/A time=00:16:44.37 bitrate=N/A speed=7.82x    frame=24177 fps=187 q=-0.0 size=N/A time=00:16:48.38 bitrate=N/A speed=7.82x    frame=24269 fps=187 q=-0.0 size=N/A time=00:16:52.21 bitrate=N/A speed=7.82x    frame=24360 fps=187 q=-0.0 size=N/A time=00:16:56.01 bitrate=N/A speed=7.82x    frame=24457 fps=187 q=-0.0 size=N/A time=00:17:00.06 bitrate=N/A speed=7.82x    frame=24554 fps=187 q=-0.0 size=N/A time=00:17:04.10 bitrate=N/A speed=7.82x    frame=24651 fps=187 q=-0.0 size=N/A time=00:17:08.15 bitrate=N/A speed=7.82x    frame=24754 fps=187 q=-0.0 size=N/A time=00:17:12.44 bitrate=N/A speed=7.82x    frame=24848 fps=187 q=-0.0 size=N/A time=00:17:16.36 bitrate=N/A speed=7.82x    frame=24944 fps=187 q=-0.0 size=N/A time=00:17:20.37 bitrate=N/A speed=7.82x    frame=25036 fps=187 q=-0.0 size=N/A time=00:17:24.20 bitrate=N/A speed=7.81x    frame=25128 fps=187 q=-0.0 size=N/A time=00:17:28.04 bitrate=N/A speed=7.81x    frame=25214 fps=187 q=-0.0 size=N/A time=00:17:31.63 bitrate=N/A speed=7.81x    frame=25304 fps=187 q=-0.0 size=N/A time=00:17:35.38 bitrate=N/A speed=7.81x    frame=25384 fps=187 q=-0.0 size=N/A time=00:17:38.72 bitrate=N/A speed= 7.8x    frame=25476 fps=187 q=-0.0 size=N/A time=00:17:42.56 bitrate=N/A speed= 7.8x    frame=25565 fps=187 q=-0.0 size=N/A time=00:17:46.27 bitrate=N/A speed= 7.8x    frame=25650 fps=187 q=-0.0 size=N/A time=00:17:49.81 bitrate=N/A speed= 7.8x    frame=25744 fps=187 q=-0.0 size=N/A time=00:17:53.73 bitrate=N/A speed= 7.8x    frame=25833 fps=187 q=-0.0 size=N/A time=00:17:57.45 bitrate=N/A speed=7.79x    frame=25923 fps=187 q=-0.0 size=N/A time=00:18:01.20 bitrate=N/A speed=7.79x    frame=26014 fps=187 q=-0.0 size=N/A time=00:18:05.00 bitrate=N/A speed=7.79x    frame=26105 fps=187 q=-0.0 size=N/A time=00:18:08.79 bitrate=N/A speed=7.79x    frame=26200 fps=187 q=-0.0 size=N/A time=00:18:12.75 bitrate=N/A speed=7.79x    frame=26293 fps=187 q=-0.0 size=N/A time=00:18:16.63 bitrate=N/A speed=7.79x    frame=26385 fps=187 q=-0.0 size=N/A time=00:18:20.47 bitrate=N/A speed=7.78x    frame=26479 fps=187 q=-0.0 size=N/A time=00:18:24.39 bitrate=N/A speed=7.78x    frame=26570 fps=187 q=-0.0 size=N/A time=00:18:28.19 bitrate=N/A speed=7.78x    frame=26661 fps=187 q=-0.0 size=N/A time=00:18:31.98 bitrate=N/A speed=7.78x    frame=26749 fps=187 q=-0.0 size=N/A time=00:18:35.65 bitrate=N/A speed=7.78x    frame=26851 fps=187 q=-0.0 size=N/A time=00:18:39.91 bitrate=N/A speed=7.78x    frame=26939 fps=186 q=-0.0 size=N/A time=00:18:43.58 bitrate=N/A speed=7.78x    frame=27034 fps=186 q=-0.0 size=N/A time=00:18:47.54 bitrate=N/A speed=7.78x    frame=27122 fps=186 q=-0.0 size=N/A time=00:18:51.21 bitrate=N/A speed=7.78x    frame=27210 fps=186 q=-0.0 size=N/A time=00:18:54.88 bitrate=N/A speed=7.77x    frame=27301 fps=186 q=-0.0 size=N/A time=00:18:58.67 bitrate=N/A speed=7.77x    frame=27394 fps=186 q=-0.0 size=N/A time=00:19:02.55 bitrate=N/A speed=7.77x    frame=27489 fps=186 q=-0.0 size=N/A time=00:19:06.52 bitrate=N/A speed=7.77x    frame=27581 fps=186 q=-0.0 size=N/A time=00:19:10.35 bitrate=N/A speed=7.77x    frame=27676 fps=186 q=-0.0 size=N/A time=00:19:14.31 bitrate=N/A speed=7.77x    frame=27772 fps=186 q=-0.0 size=N/A time=00:19:18.32 bitrate=N/A speed=7.77x    frame=27859 fps=186 q=-0.0 size=N/A time=00:19:21.95 bitrate=N/A speed=7.77x    frame=27946 fps=186 q=-0.0 size=N/A time=00:19:25.58 bitrate=N/A speed=7.76x    frame=28029 fps=186 q=-0.0 size=N/A time=00:19:29.04 bitrate=N/A speed=7.76x    frame=28115 fps=186 q=-0.0 size=N/A time=00:19:32.62 bitrate=N/A speed=7.76x    frame=28199 fps=186 q=-0.0 size=N/A time=00:19:36.13 bitrate=N/A speed=7.75x    frame=28291 fps=186 q=-0.0 size=N/A time=00:19:39.97 bitrate=N/A speed=7.75x    frame=28391 fps=186 q=-0.0 size=N/A time=00:19:44.14 bitrate=N/A speed=7.75x    frame=28479 fps=186 q=-0.0 size=N/A time=00:19:47.81 bitrate=N/A speed=7.75x    frame=28580 fps=186 q=-0.0 size=N/A time=00:19:52.02 bitrate=N/A speed=7.75x    frame=28672 fps=186 q=-0.0 size=N/A time=00:19:55.86 bitrate=N/A speed=7.75x    frame=28764 fps=186 q=-0.0 size=N/A time=00:19:59.69 bitrate=N/A speed=7.75x    frame=28853 fps=186 q=-0.0 size=N/A time=00:20:03.41 bitrate=N/A speed=7.75x    frame=28937 fps=186 q=-0.0 size=N/A time=00:20:06.91 bitrate=N/A speed=7.75x    frame=29028 fps=186 q=-0.0 size=N/A time=00:20:10.70 bitrate=N/A speed=7.74x    frame=29124 fps=186 q=-0.0 size=N/A time=00:20:14.71 bitrate=N/A speed=7.74x    frame=29215 fps=186 q=-0.0 size=N/A time=00:20:18.50 bitrate=N/A speed=7.74x    frame=29317 fps=186 q=-0.0 size=N/A time=00:20:22.76 bitrate=N/A speed=7.74x    frame=29407 fps=186 q=-0.0 size=N/A time=00:20:26.51 bitrate=N/A speed=7.74x    frame=29509 fps=186 q=-0.0 size=N/A time=00:20:30.77 bitrate=N/A speed=7.74x    frame=29596 fps=186 q=-0.0 size=N/A time=00:20:34.39 bitrate=N/A speed=7.74x    frame=29690 fps=186 q=-0.0 size=N/A time=00:20:38.32 bitrate=N/A speed=7.74x    frame=29788 fps=186 q=-0.0 size=N/A time=00:20:42.40 bitrate=N/A speed=7.74x    frame=29876 fps=186 q=-0.0 size=N/A time=00:20:46.07 bitrate=N/A speed=7.74x    frame=29964 fps=186 q=-0.0 size=N/A time=00:20:49.74 bitrate=N/A speed=7.74x    frame=30060 fps=186 q=-0.0 size=N/A time=00:20:53.75 bitrate=N/A speed=7.74x    frame=30153 fps=186 q=-0.0 size=N/A time=00:20:57.63 bitrate=N/A speed=7.74x    frame=30243 fps=185 q=-0.0 size=N/A time=00:21:01.38 bitrate=N/A speed=7.74x    frame=30344 fps=186 q=-0.0 size=N/A time=00:21:05.59 bitrate=N/A speed=7.74x    frame=30433 fps=185 q=-0.0 size=N/A time=00:21:09.30 bitrate=N/A speed=7.74x    frame=30524 fps=185 q=-0.0 size=N/A time=00:21:13.10 bitrate=N/A speed=7.73x    frame=30621 fps=185 q=-0.0 size=N/A time=00:21:17.15 bitrate=N/A speed=7.74x    frame=30713 fps=185 q=-0.0 size=N/A time=00:21:20.98 bitrate=N/A speed=7.73x    frame=30799 fps=185 q=-0.0 size=N/A time=00:21:24.57 bitrate=N/A speed=7.73x    frame=30896 fps=185 q=-0.0 size=N/A time=00:21:28.62 bitrate=N/A speed=7.73x    frame=30985 fps=185 q=-0.0 size=N/A time=00:21:32.33 bitrate=N/A speed=7.73x    frame=31077 fps=185 q=-0.0 size=N/A time=00:21:36.16 bitrate=N/A speed=7.73x    frame=31166 fps=185 q=-0.0 size=N/A time=00:21:39.88 bitrate=N/A speed=7.73x    frame=31259 fps=185 q=-0.0 size=N/A time=00:21:43.76 bitrate=N/A speed=7.73x    frame=31344 fps=185 q=-0.0 size=N/A time=00:21:47.30 bitrate=N/A speed=7.73x    frame=31441 fps=185 q=-0.0 size=N/A time=00:21:51.35 bitrate=N/A speed=7.73x    frame=31534 fps=185 q=-0.0 size=N/A time=00:21:55.23 bitrate=N/A speed=7.72x    frame=31615 fps=185 q=-0.0 size=N/A time=00:21:58.60 bitrate=N/A speed=7.72x    frame=31700 fps=185 q=-0.0 size=N/A time=00:22:02.15 bitrate=N/A speed=7.72x    frame=31786 fps=185 q=-0.0 size=N/A time=00:22:05.74 bitrate=N/A speed=7.72x    frame=31871 fps=185 q=-0.0 size=N/A time=00:22:09.28 bitrate=N/A speed=7.71x    frame=31969 fps=185 q=-0.0 size=N/A time=00:22:13.37 bitrate=N/A speed=7.71x    frame=32059 fps=185 q=-0.0 size=N/A time=00:22:17.12 bitrate=N/A speed=7.71x    frame=32150 fps=185 q=-0.0 size=N/A time=00:22:20.92 bitrate=N/A speed=7.71x    frame=32242 fps=185 q=-0.0 size=N/A time=00:22:24.76 bitrate=N/A speed=7.71x    frame=32336 fps=185 q=-0.0 size=N/A time=00:22:28.68 bitrate=N/A speed=7.71x    frame=32430 fps=185 q=-0.0 size=N/A time=00:22:32.60 bitrate=N/A speed=7.71x    frame=32524 fps=185 q=-0.0 size=N/A time=00:22:36.52 bitrate=N/A speed=7.71x    frame=32614 fps=185 q=-0.0 size=N/A time=00:22:40.27 bitrate=N/A speed=7.71x    frame=32711 fps=185 q=-0.0 size=N/A time=00:22:44.32 bitrate=N/A speed=7.71x    frame=32801 fps=185 q=-0.0 size=N/A time=00:22:48.07 bitrate=N/A speed=7.71x    frame=32900 fps=185 q=-0.0 size=N/A time=00:22:52.20 bitrate=N/A speed=7.71x    frame=32994 fps=185 q=-0.0 size=N/A time=00:22:56.12 bitrate=N/A speed=7.71x    frame=33086 fps=185 q=-0.0 size=N/A time=00:22:59.96 bitrate=N/A speed=7.71x    frame=33183 fps=185 q=-0.0 size=N/A time=00:23:04.00 bitrate=N/A speed=7.71x    frame=33274 fps=185 q=-0.0 size=N/A time=00:23:07.80 bitrate=N/A speed=7.71x    frame=33362 fps=185 q=-0.0 size=N/A time=00:23:11.47 bitrate=N/A speed=7.71x    frame=33460 fps=185 q=-0.0 size=N/A time=00:23:15.56 bitrate=N/A speed=7.71x    frame=33551 fps=185 q=-0.0 size=N/A time=00:23:19.35 bitrate=N/A speed=7.71x    frame=33641 fps=185 q=-0.0 size=N/A time=00:23:23.11 bitrate=N/A speed= 7.7x    frame=33732 fps=185 q=-0.0 size=N/A time=00:23:26.90 bitrate=N/A speed= 7.7x    frame=33816 fps=185 q=-0.0 size=N/A time=00:23:30.40 bitrate=N/A speed= 7.7x    frame=33908 fps=185 q=-0.0 size=N/A time=00:23:34.24 bitrate=N/A speed= 7.7x    frame=34005 fps=185 q=-0.0 size=N/A time=00:23:38.29 bitrate=N/A speed= 7.7x    frame=34099 fps=185 q=-0.0 size=N/A time=00:23:42.21 bitrate=N/A speed= 7.7x    frame=34194 fps=185 q=-0.0 size=N/A time=00:23:46.17 bitrate=N/A speed= 7.7x    frame=34285 fps=185 q=-0.0 size=N/A time=00:23:49.97 bitrate=N/A speed= 7.7x    frame=34379 fps=185 q=-0.0 size=N/A time=00:23:53.89 bitrate=N/A speed= 7.7x    [Parsed_psnr_10 @ 0000029617d0e0c0] PSNR y:46.089959 u:51.588481 v:50.807038 average:47.225570 min:39.439421 max:inf
[out#0/null @ 000002960c6f8a40] video:14805KiB audio:269464KiB subtitle:0KiB other streams:0KiB global headers:0KiB muxing overhead: unknown
frame=34456 fps=185 q=-0.0 Lsize=N/A time=00:23:57.10 bitrate=N/A speed= 7.7x    
